<svg width="393" height="402" viewBox="0 0 393 402" fill="none" xmlns="http://www.w3.org/2000/svg">
<path d="M342.779 268H137.649C134.246 268.006 130.941 266.854 128.279 264.733C125.617 262.612 123.755 259.649 122.999 256.33L88.4593 105.85C87.9541 103.652 87.951 101.368 88.4505 99.1688C88.9499 96.9693 89.9389 94.9108 91.3439 93.1464C92.7489 91.3819 94.5337 89.9571 96.5655 88.9778C98.5973 87.9985 100.824 87.4901 103.079 87.4903H377.349C379.607 87.4856 381.837 87.9907 383.873 88.968C385.908 89.9454 387.697 91.3696 389.105 93.1346C390.514 94.8996 391.505 96.9598 392.006 99.1615C392.508 101.363 392.505 103.65 391.999 105.85L357.399 256.33C356.645 259.644 354.787 262.603 352.131 264.723C349.475 266.844 346.178 267.999 342.779 268ZM149.589 238H330.839L358.509 117.52H121.909L149.589 238Z" fill="#EDF2F4"/>
<path d="M167 401.999C155.631 401.999 144.518 398.628 135.065 392.312C125.613 385.996 118.245 377.019 113.895 366.516C109.544 356.013 108.406 344.455 110.624 333.305C112.842 322.155 118.316 311.913 126.355 303.875C134.394 295.836 144.636 290.361 155.786 288.144C166.936 285.926 178.493 287.064 188.996 291.414C199.499 295.765 208.476 303.132 214.792 312.585C221.108 322.037 224.48 333.151 224.48 344.519C224.464 359.759 218.403 374.37 207.627 385.146C196.85 395.922 182.239 401.983 167 401.999ZM167 317.049C161.564 317.049 156.251 318.661 151.731 321.681C147.212 324.701 143.69 328.993 141.61 334.015C139.531 339.037 138.987 344.563 140.048 349.894C141.109 355.225 143.728 360.121 147.572 363.964C151.416 367.807 156.313 370.423 161.645 371.482C166.976 372.541 172.501 371.996 177.523 369.914C182.544 367.833 186.835 364.309 189.853 359.789C192.872 355.269 194.482 349.955 194.48 344.519C194.472 337.234 191.574 330.25 186.421 325.1C181.269 319.95 174.284 317.054 167 317.049Z" fill="#EDF2F4"/>
<path d="M313.421 401.999C302.053 401.999 290.94 398.628 281.487 392.312C272.035 385.996 264.667 377.019 260.317 366.516C255.966 356.013 254.828 344.455 257.046 333.305C259.264 322.155 264.738 311.913 272.777 303.875C280.816 295.836 291.058 290.361 302.208 288.144C313.358 285.926 324.915 287.064 335.418 291.414C345.921 295.765 354.898 303.132 361.214 312.585C367.53 322.037 370.901 333.151 370.901 344.519C370.886 359.759 364.825 374.37 354.048 385.146C343.272 395.922 328.661 401.983 313.421 401.999ZM313.421 317.049C307.986 317.049 302.673 318.661 298.153 321.681C293.634 324.701 290.112 328.993 288.032 334.015C285.953 339.037 285.409 344.563 286.47 349.894C287.531 355.225 290.15 360.121 293.994 363.964C297.838 367.807 302.735 370.423 308.066 371.482C313.398 372.541 318.923 371.996 323.945 369.914C328.966 367.833 333.257 364.309 336.275 359.789C339.293 355.269 340.903 349.955 340.901 344.519C340.893 337.234 337.995 330.25 332.843 325.1C327.691 319.95 320.706 317.054 313.421 317.049Z" fill="#EDF2F4"/>
<path d="M103.079 117.49C99.9306 117.49 96.8619 116.499 94.3079 114.657C91.754 112.816 89.8442 110.217 88.8492 107.23L63.1392 30H15.6992C11.721 30 7.90566 28.4197 5.09262 25.6066C2.27957 22.7936 0.699219 18.9782 0.699219 15C0.699219 11.0218 2.27957 7.20644 5.09262 4.3934C7.90566 1.58035 11.721 0 15.6992 0H73.9992C77.1478 0.000291324 80.2165 0.991372 82.7705 2.83282C85.3245 4.67428 87.2343 7.27272 88.2292 10.26L117.359 97.75C118.11 100.005 118.315 102.405 117.956 104.754C117.597 107.104 116.685 109.334 115.296 111.262C113.906 113.189 112.078 114.759 109.963 115.842C107.848 116.925 105.506 117.49 103.129 117.49H103.079Z" fill="#EDF2F4"/>
</svg>
