<svg width="616" height="125" viewBox="0 0 616 125" fill="none" xmlns="http://www.w3.org/2000/svg">
<path d="M20.9056 0H2C0.895431 0 0 0.895432 0 2V20.01C0 20.5374 0.208324 21.0435 0.579625 21.418L102.674 124.408C103.05 124.787 103.561 125 104.094 125H123C124.105 125 125 124.105 125 123V104.99C125 104.463 124.792 103.957 124.42 103.582L22.326 0.591975C21.9504 0.213119 21.439 0 20.9056 0Z" fill="#EDF2F4"/>
<path d="M10.8696 112.583V42.0686C10.8696 40.2785 13.041 39.39 14.2958 40.6666L83.6123 111.181C84.8556 112.446 83.9596 114.583 82.186 114.583H12.8696C11.765 114.583 10.8696 113.688 10.8696 112.583Z" fill="#EDF2F4"/>
<path d="M112.13 10.4167H42.7831C41.014 10.4167 40.116 12.5447 41.3503 13.8121L110.698 85.0169C111.95 86.3026 114.13 85.4161 114.13 83.6215V12.4167C114.13 11.3121 113.235 10.4167 112.13 10.4167Z" fill="#EDF2F4"/>
<path d="M153 49.5C155.133 48.9667 157.967 48.4 161.5 47.8C165.033 47.2 169.1 46.9 173.7 46.9C177.833 46.9 181.267 47.5 184 48.7C186.733 49.8333 188.9 51.4667 190.5 53.6C192.167 55.6667 193.333 58.1667 194 61.1C194.667 64.0333 195 67.2667 195 70.8V100H185.7V72.8C185.7 69.6 185.467 66.8667 185 64.6C184.6 62.3333 183.9 60.5 182.9 59.1C181.9 57.7 180.567 56.7 178.9 56.1C177.233 55.4333 175.167 55.1 172.7 55.1C171.7 55.1 170.667 55.1333 169.6 55.2C168.533 55.2667 167.5 55.3667 166.5 55.5C165.567 55.5667 164.7 55.6667 163.9 55.8C163.167 55.9333 162.633 56.0333 162.3 56.1V100H153V49.5ZM256.322 74C256.322 78.1333 255.722 81.8667 254.522 85.2C253.322 88.5333 251.622 91.4 249.422 93.8C247.289 96.2 244.722 98.0667 241.722 99.4C238.722 100.667 235.455 101.3 231.922 101.3C228.389 101.3 225.122 100.667 222.122 99.4C219.122 98.0667 216.522 96.2 214.322 93.8C212.189 91.4 210.522 88.5333 209.322 85.2C208.122 81.8667 207.522 78.1333 207.522 74C207.522 69.9333 208.122 66.2333 209.322 62.9C210.522 59.5 212.189 56.6 214.322 54.2C216.522 51.8 219.122 49.9667 222.122 48.7C225.122 47.3667 228.389 46.7 231.922 46.7C235.455 46.7 238.722 47.3667 241.722 48.7C244.722 49.9667 247.289 51.8 249.422 54.2C251.622 56.6 253.322 59.5 254.522 62.9C255.722 66.2333 256.322 69.9333 256.322 74ZM246.622 74C246.622 68.1333 245.289 63.5 242.622 60.1C240.022 56.6333 236.455 54.9 231.922 54.9C227.389 54.9 223.789 56.6333 221.122 60.1C218.522 63.5 217.222 68.1333 217.222 74C217.222 79.8667 218.522 84.5333 221.122 88C223.789 91.4 227.389 93.1 231.922 93.1C236.455 93.1 240.022 91.4 242.622 88C245.289 84.5333 246.622 79.8667 246.622 74ZM286.106 93.1C296.24 93.1 301.306 89.6333 301.306 82.7C301.306 80.5667 300.84 78.7667 299.906 77.3C299.04 75.7667 297.84 74.4667 296.306 73.4C294.773 72.2667 293.006 71.3 291.006 70.5C289.073 69.7 287.006 68.9 284.806 68.1C282.273 67.2333 279.873 66.2667 277.606 65.2C275.34 64.0667 273.373 62.7667 271.706 61.3C270.04 59.7667 268.706 57.9667 267.706 55.9C266.773 53.8333 266.306 51.3333 266.306 48.4C266.306 42.3333 268.373 37.6 272.506 34.2C276.64 30.8 282.34 29.1 289.606 29.1C293.806 29.1 297.606 29.5667 301.006 30.5C304.473 31.3667 307.006 32.3333 308.606 33.4L305.506 41.3C304.106 40.4333 302.006 39.6 299.206 38.8C296.473 37.9333 293.273 37.5 289.606 37.5C287.74 37.5 286.006 37.7 284.406 38.1C282.806 38.5 281.406 39.1 280.206 39.9C279.006 40.7 278.04 41.7333 277.306 43C276.64 44.2 276.306 45.6333 276.306 47.3C276.306 49.1667 276.673 50.7333 277.406 52C278.14 53.2667 279.173 54.4 280.506 55.4C281.84 56.3333 283.373 57.2 285.106 58C286.906 58.8 288.873 59.6 291.006 60.4C294.006 61.6 296.74 62.8 299.206 64C301.74 65.2 303.906 66.6333 305.706 68.3C307.573 69.9667 309.006 71.9667 310.006 74.3C311.006 76.5667 311.506 79.3333 311.506 82.6C311.506 88.6667 309.273 93.3333 304.806 96.6C300.406 99.8667 294.173 101.5 286.106 101.5C283.373 101.5 280.84 101.3 278.506 100.9C276.24 100.567 274.206 100.167 272.406 99.7C270.606 99.1667 269.04 98.6333 267.706 98.1C266.44 97.5 265.44 97 264.706 96.6L267.606 88.6C269.14 89.4667 271.473 90.4333 274.606 91.5C277.74 92.5667 281.573 93.1 286.106 93.1ZM331.329 48H351.029V55.8H331.329V79.8C331.329 82.4 331.529 84.5667 331.929 86.3C332.329 87.9667 332.929 89.3 333.729 90.3C334.529 91.2333 335.529 91.9 336.729 92.3C337.929 92.7 339.329 92.9 340.929 92.9C343.729 92.9 345.962 92.6 347.629 92C349.362 91.3333 350.562 90.8667 351.229 90.6L353.029 98.3C352.096 98.7667 350.462 99.3333 348.129 100C345.796 100.733 343.129 101.1 340.129 101.1C336.596 101.1 333.662 100.667 331.329 99.8C329.062 98.8667 327.229 97.5 325.829 95.7C324.429 93.9 323.429 91.7 322.829 89.1C322.296 86.4333 322.029 83.3667 322.029 79.9V33.5L331.329 31.9V48ZM372.163 100H362.863V48H372.163V100ZM367.463 38.6C365.797 38.6 364.363 38.0667 363.163 37C362.03 35.8667 361.463 34.3667 361.463 32.5C361.463 30.6333 362.03 29.1667 363.163 28.1C364.363 26.9667 365.797 26.4 367.463 26.4C369.13 26.4 370.53 26.9667 371.663 28.1C372.863 29.1667 373.463 30.6333 373.463 32.5C373.463 34.3667 372.863 35.8667 371.663 37C370.53 38.0667 369.13 38.6 367.463 38.6ZM410.756 101.2C406.556 101.2 402.856 100.533 399.656 99.2C396.523 97.8667 393.856 96 391.656 93.6C389.523 91.2 387.923 88.3667 386.856 85.1C385.79 81.7667 385.256 78.1 385.256 74.1C385.256 70.1 385.823 66.4333 386.956 63.1C388.156 59.7667 389.823 56.9 391.956 54.5C394.09 52.0333 396.69 50.1333 399.756 48.8C402.89 47.4 406.356 46.7 410.156 46.7C412.49 46.7 414.823 46.9 417.156 47.3C419.49 47.7 421.723 48.3333 423.856 49.2L421.756 57.1C420.356 56.4333 418.723 55.9 416.856 55.5C415.056 55.1 413.123 54.9 411.056 54.9C405.856 54.9 401.856 56.5333 399.056 59.8C396.323 63.0667 394.956 67.8333 394.956 74.1C394.956 76.9 395.256 79.4667 395.856 81.8C396.523 84.1333 397.523 86.1333 398.856 87.8C400.256 89.4667 402.023 90.7667 404.156 91.7C406.29 92.5667 408.89 93 411.956 93C414.423 93 416.656 92.7667 418.656 92.3C420.656 91.8333 422.223 91.3333 423.356 90.8L424.656 98.6C424.123 98.9333 423.356 99.2667 422.356 99.6C421.356 99.8667 420.223 100.1 418.956 100.3C417.69 100.567 416.323 100.767 414.856 100.9C413.456 101.1 412.09 101.2 410.756 101.2ZM453.441 71.4C455.441 72.9333 457.541 74.8333 459.741 77.1C462.007 79.3667 464.207 81.8333 466.341 84.5C468.541 87.1 470.607 89.7667 472.541 92.5C474.474 95.1667 476.107 97.6667 477.441 100H466.541C465.141 97.6667 463.507 95.3 461.641 92.9C459.841 90.4333 457.941 88.1 455.941 85.9C453.941 83.6333 451.907 81.5667 449.841 79.7C447.774 77.8333 445.807 76.2667 443.941 75V100H434.641V24L443.941 22.4V69.8C445.541 68.2 447.307 66.4333 449.241 64.5C451.174 62.5667 453.074 60.6 454.941 58.6C456.807 56.6 458.574 54.7 460.241 52.9C461.907 51.0333 463.341 49.4 464.541 48H475.441C473.907 49.6667 472.241 51.5 470.441 53.5C468.641 55.5 466.774 57.5333 464.841 59.6C462.907 61.6 460.941 63.6333 458.941 65.7C457.007 67.7 455.174 69.6 453.441 71.4ZM481.35 74.1C481.35 69.5 482.017 65.5 483.35 62.1C484.683 58.6333 486.45 55.7667 488.65 53.5C490.85 51.2333 493.383 49.5333 496.25 48.4C499.117 47.2667 502.05 46.7 505.05 46.7C512.05 46.7 517.417 48.9 521.15 53.3C524.883 57.6333 526.75 64.2667 526.75 73.2C526.75 73.6 526.75 74.1333 526.75 74.8C526.75 75.4 526.717 75.9667 526.65 76.5H491.05C491.45 81.9 493.017 86 495.75 88.8C498.483 91.6 502.75 93 508.55 93C511.817 93 514.55 92.7333 516.75 92.2C519.017 91.6 520.717 91.0333 521.85 90.5L523.15 98.3C522.017 98.9 520.017 99.5333 517.15 100.2C514.35 100.867 511.15 101.2 507.55 101.2C503.017 101.2 499.083 100.533 495.75 99.2C492.483 97.8 489.783 95.9 487.65 93.5C485.517 91.1 483.917 88.2667 482.85 85C481.85 81.6667 481.35 78.0333 481.35 74.1ZM517.05 69C517.117 64.8 516.05 61.3667 513.85 58.7C511.717 55.9667 508.75 54.6 504.95 54.6C502.817 54.6 500.917 55.0333 499.25 55.9C497.65 56.7 496.283 57.7667 495.15 59.1C494.017 60.4333 493.117 61.9667 492.45 63.7C491.85 65.4333 491.45 67.2 491.25 69H517.05ZM559.309 46.9C560.109 46.9 561.009 46.9667 562.009 47.1C563.076 47.1667 564.109 47.3 565.109 47.5C566.109 47.6333 567.009 47.8 567.809 48C568.676 48.1333 569.309 48.2667 569.709 48.4L568.109 56.5C567.376 56.2333 566.143 55.9333 564.409 55.6C562.743 55.2 560.576 55 557.909 55C556.176 55 554.443 55.2 552.709 55.6C551.043 55.9333 549.943 56.1667 549.409 56.3V100H540.109V50.2C542.309 49.4 545.043 48.6667 548.309 48C551.576 47.2667 555.243 46.9 559.309 46.9ZM590.784 93.3C594.584 93.3 597.384 92.8 599.184 91.8C601.05 90.8 601.984 89.2 601.984 87C601.984 84.7333 601.084 82.9333 599.284 81.6C597.484 80.2667 594.517 78.7667 590.384 77.1C588.384 76.3 586.45 75.5 584.584 74.7C582.784 73.8333 581.217 72.8333 579.884 71.7C578.55 70.5667 577.484 69.2 576.684 67.6C575.884 66 575.484 64.0333 575.484 61.7C575.484 57.1 577.184 53.4667 580.584 50.8C583.984 48.0667 588.617 46.7 594.484 46.7C595.95 46.7 597.417 46.8 598.884 47C600.35 47.1333 601.717 47.3333 602.984 47.6C604.25 47.8 605.35 48.0333 606.284 48.3C607.284 48.5667 608.05 48.8 608.584 49L606.884 57C605.884 56.4667 604.317 55.9333 602.184 55.4C600.05 54.8 597.484 54.5 594.484 54.5C591.884 54.5 589.617 55.0333 587.684 56.1C585.75 57.1 584.784 58.7 584.784 60.9C584.784 62.0333 584.984 63.0333 585.384 63.9C585.85 64.7667 586.517 65.5667 587.384 66.3C588.317 66.9667 589.45 67.6 590.784 68.2C592.117 68.8 593.717 69.4333 595.584 70.1C598.05 71.0333 600.25 71.9667 602.184 72.9C604.117 73.7667 605.75 74.8 607.084 76C608.484 77.2 609.55 78.6667 610.284 80.4C611.017 82.0667 611.384 84.1333 611.384 86.6C611.384 91.4 609.584 95.0333 605.984 97.5C602.45 99.9667 597.384 101.2 590.784 101.2C586.184 101.2 582.584 100.8 579.984 100C577.384 99.2667 575.617 98.7 574.684 98.3L576.384 90.3C577.45 90.7 579.15 91.3 581.484 92.1C583.817 92.9 586.917 93.3 590.784 93.3Z" fill="white"/>
</svg>
